<svg height="512pt" viewBox="0 0 512 512" width="512pt" xmlns="http://www.w3.org/2000/svg"><path d="m503.464844 256c0 136.671875-110.792969 247.464844-247.464844 247.464844-4.265625 0-8.535156-.082032-12.714844-.339844h-.171875c-131.441406-6.910156-234.472656-115.503906-234.472656-247.125s103.03125-240.214844 234.472656-247.125h.171875c4.179688-.257812 8.449219-.339844 12.714844-.339844 136.671875 0 247.464844 110.792969 247.464844 247.464844zm0 0" fill="#37474f"/><path d="m477.867188 256c-.003907 131.664062-103.097657 240.269531-234.582032 247.125h-.171875c-131.441406-6.910156-234.472656-115.503906-234.472656-247.125s103.03125-240.214844 234.472656-247.125h.171875c131.484375 6.855469 234.578125 115.460938 234.582032 247.125zm0 0" fill="#607d8b"/><path d="m349.867188 256c-.035157 51.828125-42.039063 93.832031-93.867188 93.867188-4.285156.03125-8.566406-.28125-12.800781-.9375-46.441407-6.371094-81.050781-46.050782-81.050781-92.929688s34.609374-86.558594 81.050781-92.929688c4.234375-.65625 8.515625-.96875 12.800781-.9375 51.828125.035157 93.832031 42.039063 93.867188 93.867188zm0 0" fill="#c52828"/><path d="m324.265625 256c0-51.324219-36.292969-92.929688-81.066406-92.929688-44.769531 0-81.066407 41.605469-81.066407 92.929688s36.296876 92.929688 81.066407 92.929688c44.773437 0 81.066406-41.605469 81.066406-92.929688zm0 0" fill="#f44335"/><path d="m298.667969 256c0 23.5625-19.105469 42.667969-42.667969 42.667969s-42.667969-19.105469-42.667969-42.667969 19.105469-42.667969 42.667969-42.667969 42.667969 19.105469 42.667969 42.667969zm0 0" fill="#fff"/><path d="m256 0c-141.386719 0-256 114.613281-256 256s114.613281 256 256 256 256-114.613281 256-256c-.160156-141.320312-114.679688-255.839844-256-256zm0 494.933594c-131.960938 0-238.933594-106.972656-238.933594-238.933594s106.972656-238.933594 238.933594-238.933594 238.933594 106.972656 238.933594 238.933594c-.152344 131.898438-107.035156 238.78125-238.933594 238.933594zm0 0"/><path d="m55.363281 214.765625c5.382813-26.175781 15.855469-51.042969 30.824219-73.179687 14.765625-21.828126 33.570312-40.632813 55.398438-55.398438 3.902343-2.640625 4.929687-7.945312 2.289062-11.847656-2.636719-3.90625-7.941406-4.933594-11.847656-2.292969-61.253906 41.167969-97.964844 110.152344-97.894532 183.953125 0 4.710938 3.820313 8.535156 8.535157 8.535156 4.710937 0 8.53125-3.824218 8.53125-8.535156 0-13.847656 1.398437-27.664062 4.164062-41.234375zm0 0"/><path d="m256 460.800781c-13.847656 0-27.664062-1.398437-41.234375-4.164062-26.175781-5.382813-51.042969-15.855469-73.179687-30.824219-32.929688-22.25-58.714844-53.558594-74.242188-90.144531-1.835938-4.339844-6.84375-6.371094-11.1875-4.53125-4.339844 1.835937-6.367188 6.847656-4.53125 11.1875 34.648438 82.1875 115.183594 135.597656 204.375 135.542969 4.710938 0 8.535156-3.820313 8.535156-8.535157 0-4.710937-3.824218-8.53125-8.535156-8.53125zm0 0"/><path d="m456.636719 297.234375c-5.382813 26.175781-15.855469 51.042969-30.824219 73.179687-7.363281 10.882813-15.746094 21.039063-25.035156 30.328126-2.21875 2.144531-3.109375 5.316406-2.328125 8.300781.78125 2.980469 3.109375 5.3125 6.09375 6.09375s6.15625-.109375 8.300781-2.328125c41.683594-41.53125 65.085938-97.96875 65.023438-156.808594 0-4.710938-3.820313-8.535156-8.535157-8.535156-4.710937 0-8.53125 3.824218-8.53125 8.535156 0 13.847656-1.398437 27.664062-4.164062 41.234375zm0 0"/><path d="m379.972656 72.082031c-24.003906-16.246093-50.96875-27.605469-79.359375-33.433593-4.5625-.816407-8.941406 2.152343-9.867187 6.691406-.925782 4.539062 1.9375 8.988281 6.453125 10.023437 26.1875 5.375 51.066406 15.847657 73.214843 30.824219 32.929688 22.25 58.714844 53.558594 74.242188 90.144531 1.1875 2.808594 3.785156 4.769531 6.808594 5.144531 3.027344.371094 6.023437-.894531 7.859375-3.328124 1.839843-2.433594 2.238281-5.664063 1.050781-8.472657-16.847656-39.59375-44.765625-73.484375-80.402344-97.59375zm0 0"/><path d="m404.546875 364.65625c2.835937 0 5.488281-1.40625 7.074219-3.757812 6.792968-10.042969 12.597656-20.71875 17.332031-31.878907 9.777344-23.101562 14.804687-47.933593 14.78125-73.019531 0-4.710938-3.820313-8.535156-8.535156-8.535156-4.710938 0-8.53125 3.824218-8.53125 8.535156 0 11.539062-1.164063 23.050781-3.472657 34.355469-4.492187 21.816406-13.226562 42.539062-25.710937 60.988281-1.769531 2.613281-1.949219 5.992188-.46875 8.777344 1.480469 2.789062 4.375 4.53125 7.53125 4.535156zm0 0"/><path d="m351.34375 114.515625c27.445312 18.535156 48.941406 44.613281 61.890625 75.09375 1.839844 4.34375 6.851563 6.367187 11.191406 4.527344 4.339844-1.839844 6.367188-6.851563 4.527344-11.191407-19.121094-44.980468-54.945313-80.792968-99.933594-99.898437-4.339843-1.839844-9.351562.1875-11.191406 4.527344-1.839844 4.339843.1875 9.351562 4.527344 11.191406 10.148437 4.300781 19.859375 9.574219 28.988281 15.75zm0 0"/><path d="m88.804688 221.644531c4.492187-21.816406 13.226562-42.539062 25.710937-60.988281 6.136719-9.070312 13.121094-17.535156 20.867187-25.273438 3.230469-3.351562 3.1875-8.671874-.105468-11.964843-3.292969-3.289063-8.613282-3.335938-11.960938-.101563-17.132812 17.113282-30.804687 37.371094-40.269531 59.664063-9.777344 23.101562-14.804687 47.933593-14.78125 73.019531 0 4.710938 3.820313 8.535156 8.535156 8.535156 4.710938 0 8.53125-3.824218 8.53125-8.535156 0-11.539062 1.164063-23.050781 3.472657-34.355469zm0 0"/><path d="m100.378906 360.898438c20.390625 30.179687 49.078125 53.816406 82.601563 68.054687 11.351562 4.8125 23.15625 8.480469 35.234375 10.957031 4.558594.816406 8.9375-2.152344 9.867187-6.691406.925781-4.539062-1.9375-8.988281-6.453125-10.023438-21.820312-4.492187-42.542968-13.226562-60.988281-25.710937-27.445313-18.535156-48.941406-44.613281-61.894531-75.09375-1.839844-4.34375-6.847656-6.367187-11.191406-4.527344-4.339844 1.839844-6.367188 6.851563-4.523438 11.191407 4.742188 11.148437 10.550781 21.8125 17.347656 31.84375zm0 0"/><path d="m406.46875 286.917969c2.082031-10.175781 3.132812-20.535157 3.132812-30.917969 0-4.710938-3.820312-8.535156-8.535156-8.535156-4.710937 0-8.53125 3.824218-8.53125 8.535156.015625 18.238281-3.636718 36.289062-10.746094 53.085938-.882812 2.085937-.902343 4.433593-.050781 6.53125.847657 2.097656 2.5 3.773437 4.582031 4.65625 1.054688.441406 2.1875.671874 3.328126.671874 3.429687.003907 6.523437-2.046874 7.859374-5.203124 3.933594-9.289063 6.933594-18.945313 8.960938-28.824219zm0 0"/><path d="m389.65625 208.128906c2.863281-.003906 5.53125-1.4375 7.109375-3.824218 1.578125-2.386719 1.859375-5.402344.742187-8.039063-15.632812-36.824219-44.949218-66.140625-81.773437-81.773437-2.808594-1.1875-6.039063-.789063-8.472656 1.046874-2.433594 1.835938-3.699219 4.832032-3.328125 7.859376.375 3.027343 2.335937 5.621093 5.144531 6.8125 8.117187 3.441406 15.878906 7.65625 23.183594 12.59375 14.546875 9.84375 27.074219 22.375 36.914062 36.925781 4.945313 7.300781 9.164063 15.066406 12.605469 23.183593 1.335938 3.164063 4.441406 5.21875 7.875 5.214844zm0 0"/><path d="m114.492188 196.265625c-3.933594 9.289063-6.933594 18.945313-8.960938 28.828125-2.082031 10.167969-3.128906 20.523438-3.132812 30.90625 0 4.710938 3.820312 8.535156 8.535156 8.535156 4.710937 0 8.53125-3.824218 8.53125-8.535156-.027344-27.1875 8.105468-53.753906 23.339844-76.269531 4.914062-7.257813 10.503906-14.027344 16.699218-20.226563 3.234375-3.347656 3.1875-8.667968-.101562-11.960937-3.292969-3.292969-8.613282-3.339844-11.964844-.105469-14.019531 14.003906-25.207031 30.585938-32.945312 48.828125zm0 0"/><path d="m202.914062 381.789062c-8.117187-3.441406-15.882812-7.65625-23.183593-12.59375-14.546875-9.84375-27.078125-22.375-36.917969-36.925781-4.941406-7.300781-9.160156-15.066406-12.601562-23.183593-1.839844-4.339844-6.847657-6.371094-11.1875-4.53125-4.339844 1.839843-6.371094 6.847656-4.53125 11.1875 15.632812 36.820312 44.953124 66.136718 81.773437 81.765624 2.808594 1.1875 6.039063.789063 8.472656-1.046874 2.433594-1.835938 3.699219-4.832032 3.328125-7.859376-.375-3.027343-2.335937-5.621093-5.144531-6.8125zm0 0"/><path d="m256 153.601562c-56.554688 0-102.398438 45.84375-102.398438 102.398438s45.84375 102.398438 102.398438 102.398438 102.398438-45.84375 102.398438-102.398438c-.058594-56.527344-45.871094-102.339844-102.398438-102.398438zm0 187.730469c-47.128906 0-85.332031-38.203125-85.332031-85.332031s38.203125-85.332031 85.332031-85.332031 85.332031 38.203125 85.332031 85.332031c-.050781 47.105469-38.226562 85.28125-85.332031 85.332031zm0 0"/><path d="m256 204.800781c-28.277344 0-51.199219 22.921875-51.199219 51.199219s22.921875 51.199219 51.199219 51.199219 51.199219-22.921875 51.199219-51.199219c-.027344-28.265625-22.933594-51.171875-51.199219-51.199219zm0 85.332031c-18.851562 0-34.132812-15.28125-34.132812-34.132812s15.28125-34.132812 34.132812-34.132812 34.132812 15.28125 34.132812 34.132812-15.28125 34.132812-34.132812 34.132812zm0 0"/></svg>